<?xml version="1.0" encoding="utf-8"?>
<!-- Generator: Adobe Illustrator 16.0.0, SVG Export Plug-In . SVG Version: 6.00 Build 0)  -->
<!DOCTYPE svg PUBLIC "-//W3C//DTD SVG 1.1//EN" "http://www.w3.org/Graphics/SVG/1.1/DTD/svg11.dtd">
<svg version="1.1" id="Layer_1" xmlns="http://www.w3.org/2000/svg" xmlns:xlink="http://www.w3.org/1999/xlink" x="0px" y="0px"
	 width="348.465px" height="619.73px" viewBox="0 0 348.465 619.73" enable-background="new 0 0 348.465 619.73"
	 xml:space="preserve">
<g>
	<path d="M200.792,258.712l34.011-14.706c47.8-20.672,72.606-53.299,72.606-90.976c0-42.28-37.679-81.343-113.034-81.343
		c-71.239,0-122.237,44.581-122.237,112.585v33.076h43.645l42.748-40.896v124.539H1.833l54.216-51.018
		C26.64,228.387,0,195.292,0,149.346C0,62.503,75.823,0,168.634,0c94.195,0,169.569,62.952,169.569,159.916
		c0,43.665-5.986,70.772-5.986,92.36v25.275H200.792V258.712z"/>
	<path d="M304.658,458.325H183.805l73.523,68.004H91.893l73.522-68.004H33.544v63.421l96.027,95.578L5.968,593.883V337.472
		l36.762,36.762h252.726l36.761-36.762v252.726H226.534l78.124-68.92V458.325z"/>
</g>
</svg>
