<?xml version="1.0" encoding="utf-8"?>
<!-- Generator: Adobe Illustrator 16.0.0, SVG Export Plug-In . SVG Version: 6.00 Build 0)  -->
<!DOCTYPE svg PUBLIC "-//W3C//DTD SVG 1.1//EN" "http://www.w3.org/Graphics/SVG/1.1/DTD/svg11.dtd">
<svg version="1.1" id="Layer_1" xmlns="http://www.w3.org/2000/svg" xmlns:xlink="http://www.w3.org/1999/xlink" x="0px" y="0px"
	 width="682.607px" height="664.679px" viewBox="0 0 682.607 664.679" enable-background="new 0 0 682.607 664.679"
	 xml:space="preserve">
<path d="M298.756,540.219l38.021-51.804v176.797l-38.021-38.021H37.363l-38.021,38.021V515.505
	c0-76.516,20.911-124.993,86.972-124.993c57.507,0,98.854,59.407,98.854,127.37v7.604h-21.387v-2.852
	c0-26.615-34.693-42.773-72.715-42.773c-48.476,0-58.457,29.941-58.457,51.328v9.03H298.756z"/>
<path d="M337.894,173.42c0,97.428-65.11,175.372-165.389,175.372c-99.804,0-165.391-78.418-165.391-174.421
	C7.114,76.942,72.225-1,172.505-1C272.309-1,337.894,77.417,337.894,173.42z M245.694,208.114
	c0-86.972-30.415-171.569-88.873-171.569c-36.595,0-57.507,39.922-57.507,103.132c0,89.824,33.745,169.668,92.201,169.668
	C228.111,309.345,245.694,271.324,245.694,208.114z"/>
<path d="M365.937,342.613l38.021-38.021V43.199L365.937,5.178h146.855c117.389,0,169.193,66.536,169.193,164.915
	s-80.794,172.52-170.143,172.52H365.937z M490.931,308.87h9.029c66.062,0,83.172-37.546,83.172-122.142
	c0-89.825-25.665-153.034-86.975-153.034h-5.227V308.87z"/>
</svg>
